<svg width="432" height="209" viewBox="0 0 432 209" fill="none" xmlns="http://www.w3.org/2000/svg">
<path d="M260.887 172.43V175.702C260.887 175.79 260.853 175.876 260.792 175.94C260.731 176.004 260.647 176.042 260.558 176.045H255.569C255.481 176.045 255.398 176.08 255.336 176.142C255.274 176.204 255.24 176.288 255.24 176.375V190.96C255.236 191.048 255.199 191.132 255.135 191.194C255.071 191.255 254.986 191.29 254.897 191.29H251.552C251.464 191.29 251.379 191.255 251.315 191.194C251.251 191.132 251.213 191.048 251.21 190.96V176.334C251.21 176.246 251.175 176.162 251.113 176.101C251.052 176.039 250.968 176.004 250.881 176.004H245.891C245.803 176 245.719 175.963 245.657 175.899C245.596 175.834 245.562 175.749 245.562 175.66V172.389C245.562 172.301 245.597 172.217 245.658 172.155C245.72 172.094 245.804 172.059 245.891 172.059H260.558C260.605 172.058 260.652 172.068 260.695 172.087C260.737 172.106 260.776 172.134 260.807 172.17C260.838 172.205 260.861 172.246 260.875 172.291C260.889 172.336 260.893 172.383 260.887 172.43Z" fill="white"/>
<path d="M275.747 172.444V175.688C275.747 175.731 275.738 175.774 275.721 175.814C275.705 175.854 275.681 175.89 275.65 175.921C275.62 175.952 275.583 175.976 275.543 175.993C275.503 176.009 275.461 176.018 275.418 176.018H267.344C267.255 176.021 267.171 176.059 267.11 176.123C267.049 176.187 267.015 176.273 267.015 176.361V179.55C267.015 179.639 267.049 179.725 267.11 179.789C267.171 179.853 267.255 179.891 267.344 179.894H275.089C275.179 179.894 275.267 179.93 275.331 179.995C275.395 180.059 275.431 180.147 275.431 180.238V183.207C275.428 183.296 275.39 183.38 275.326 183.441C275.262 183.503 275.177 183.537 275.089 183.537H267.344C267.255 183.54 267.171 183.578 267.11 183.642C267.049 183.706 267.015 183.792 267.015 183.88V187.083C267.015 187.127 267.023 187.169 267.04 187.209C267.056 187.25 267.08 187.286 267.111 187.317C267.142 187.347 267.178 187.371 267.218 187.388C267.258 187.405 267.3 187.413 267.344 187.413H275.418C275.506 187.417 275.59 187.454 275.651 187.519C275.712 187.583 275.747 187.668 275.747 187.757V191.001C275.747 191.044 275.738 191.087 275.721 191.127C275.705 191.167 275.681 191.203 275.65 191.234C275.62 191.265 275.583 191.289 275.543 191.306C275.503 191.322 275.461 191.331 275.418 191.331H263.437C263.35 191.331 263.266 191.296 263.204 191.234C263.143 191.172 263.108 191.088 263.108 191.001V172.444C263.108 172.355 263.142 172.27 263.203 172.205C263.265 172.141 263.348 172.104 263.437 172.1H275.418C275.506 172.104 275.59 172.141 275.651 172.205C275.712 172.27 275.747 172.355 275.747 172.444Z" fill="white"/>
<path d="M295.184 174.354L293.292 177.104C293.269 177.142 293.238 177.175 293.201 177.2C293.164 177.225 293.122 177.243 293.078 177.25C293.034 177.258 292.988 177.256 292.945 177.245C292.902 177.234 292.861 177.214 292.826 177.186C291.547 176.283 290.018 175.803 288.453 175.811C287.639 175.743 286.819 175.845 286.046 176.111C285.273 176.376 284.563 176.8 283.961 177.355C283.36 177.91 282.879 178.584 282.551 179.334C282.222 180.085 282.053 180.896 282.053 181.715C282.053 182.535 282.222 183.346 282.551 184.096C282.879 184.847 283.36 185.521 283.961 186.076C284.563 186.631 285.273 187.054 286.046 187.32C286.819 187.586 287.639 187.688 288.453 187.619C290.027 187.603 291.556 187.094 292.826 186.162C292.862 186.136 292.903 186.118 292.946 186.108C292.989 186.098 293.033 186.096 293.077 186.104C293.12 186.112 293.162 186.128 293.199 186.152C293.236 186.177 293.268 186.208 293.292 186.245L295.184 188.994C295.211 189.029 295.23 189.069 295.241 189.111C295.252 189.154 295.254 189.198 295.248 189.242C295.242 189.286 295.227 189.327 295.204 189.365C295.181 189.403 295.151 189.435 295.115 189.461C293.204 190.94 290.854 191.734 288.44 191.716C287.078 191.787 285.716 191.58 284.436 191.106C283.157 190.633 281.987 189.903 280.998 188.962C280.009 188.02 279.221 186.887 278.683 185.631C278.145 184.374 277.867 183.021 277.867 181.653C277.867 180.286 278.145 178.933 278.683 177.676C279.221 176.42 280.009 175.286 280.998 174.345C281.987 173.404 283.157 172.674 284.436 172.201C285.716 171.727 287.078 171.52 288.44 171.591C290.853 171.579 293.201 172.372 295.115 173.846C295.157 173.871 295.193 173.906 295.22 173.947C295.247 173.988 295.264 174.035 295.271 174.084C295.277 174.132 295.273 174.182 295.258 174.229C295.243 174.276 295.218 174.319 295.184 174.354Z" fill="white"/>
<path d="M300.914 172.43V179.399C300.918 179.488 300.955 179.572 301.019 179.633C301.083 179.695 301.168 179.729 301.257 179.729H307.864C307.952 179.729 308.038 179.695 308.102 179.633C308.165 179.572 308.203 179.488 308.207 179.399V172.43C308.21 172.341 308.248 172.257 308.312 172.196C308.376 172.134 308.461 172.1 308.549 172.1H311.771C311.859 172.1 311.944 172.134 312.008 172.196C312.072 172.257 312.11 172.341 312.113 172.43V190.959C312.11 191.048 312.072 191.132 312.008 191.193C311.944 191.255 311.859 191.289 311.771 191.289H308.549C308.461 191.289 308.376 191.255 308.312 191.193C308.248 191.132 308.21 191.048 308.207 190.959V183.99C308.203 183.901 308.165 183.817 308.102 183.756C308.038 183.694 307.952 183.66 307.864 183.66H301.229C301.141 183.66 301.056 183.694 300.992 183.756C300.928 183.817 300.89 183.901 300.887 183.99V190.959C300.887 191.047 300.852 191.131 300.79 191.193C300.729 191.254 300.645 191.289 300.558 191.289H297.323C297.235 191.289 297.152 191.254 297.09 191.193C297.028 191.131 296.994 191.047 296.994 190.959V172.43C296.994 172.342 297.028 172.258 297.09 172.196C297.152 172.135 297.235 172.1 297.323 172.1H300.558C300.603 172.096 300.649 172.102 300.692 172.117C300.735 172.131 300.775 172.155 300.808 172.186C300.842 172.217 300.868 172.255 300.887 172.297C300.905 172.339 300.914 172.384 300.914 172.43Z" fill="white"/>
<path d="M335.184 172.43V175.702C335.184 175.793 335.147 175.88 335.083 175.945C335.019 176.009 334.932 176.045 334.841 176.045H329.865C329.776 176.045 329.691 176.079 329.627 176.141C329.563 176.202 329.526 176.286 329.522 176.375V190.96C329.519 191.048 329.481 191.132 329.417 191.194C329.353 191.255 329.268 191.29 329.18 191.289H325.903C325.815 191.29 325.73 191.255 325.666 191.194C325.602 191.132 325.564 191.048 325.561 190.96V176.334C325.561 176.246 325.526 176.162 325.464 176.101C325.403 176.039 325.319 176.004 325.232 176.004H320.256C320.165 176.004 320.078 175.968 320.013 175.903C319.949 175.839 319.913 175.751 319.913 175.66V172.389C319.917 172.3 319.954 172.216 320.018 172.155C320.082 172.093 320.167 172.059 320.256 172.059H334.909C334.993 172.075 335.067 172.123 335.118 172.191C335.169 172.26 335.192 172.345 335.184 172.43Z" fill="white"/>
<path d="M347.109 172.32L353.84 190.836C353.857 190.887 353.862 190.941 353.854 190.994C353.847 191.047 353.827 191.098 353.796 191.142C353.766 191.186 353.725 191.223 353.678 191.248C353.631 191.274 353.578 191.288 353.524 191.289H350.098C350.029 191.29 349.961 191.27 349.905 191.23C349.848 191.191 349.805 191.134 349.782 191.069L348.411 187.399C348.387 187.335 348.344 187.28 348.287 187.241C348.231 187.202 348.165 187.18 348.096 187.179H341.736C341.667 187.18 341.601 187.202 341.545 187.241C341.488 187.28 341.445 187.335 341.421 187.399L340.05 191.069C340.025 191.133 339.982 191.189 339.926 191.228C339.869 191.267 339.803 191.288 339.734 191.289H336.307C336.254 191.288 336.201 191.274 336.154 191.248C336.107 191.223 336.066 191.186 336.036 191.142C336.005 191.098 335.985 191.047 335.978 190.994C335.97 190.941 335.975 190.887 335.992 190.836L342.723 172.32C342.747 172.256 342.791 172.201 342.847 172.161C342.903 172.122 342.97 172.101 343.038 172.1H346.712C346.793 172.082 346.879 172.094 346.952 172.134C347.025 172.175 347.081 172.241 347.109 172.32ZM343.449 183.317H346.465C346.519 183.315 346.571 183.301 346.618 183.275C346.666 183.25 346.706 183.214 346.737 183.17C346.767 183.125 346.787 183.075 346.795 183.021C346.802 182.968 346.797 182.914 346.78 182.863L345.272 178.739C345.252 178.671 345.211 178.611 345.154 178.569C345.097 178.526 345.028 178.503 344.957 178.503C344.886 178.503 344.817 178.526 344.76 178.569C344.704 178.611 344.662 178.671 344.642 178.739L343.134 182.863C343.134 182.95 343.166 183.033 343.224 183.097C343.283 183.16 343.363 183.2 343.449 183.207V183.317Z" fill="white"/>
<path d="M359.474 172.43V187.028C359.474 187.119 359.51 187.207 359.574 187.271C359.639 187.336 359.726 187.372 359.817 187.372H367.836C367.924 187.375 368.008 187.413 368.069 187.477C368.131 187.541 368.165 187.627 368.165 187.716V190.96C368.165 191.047 368.13 191.131 368.068 191.193C368.007 191.255 367.923 191.29 367.836 191.29H355.786C355.699 191.29 355.616 191.255 355.554 191.193C355.492 191.131 355.458 191.047 355.458 190.96V172.43C355.458 172.343 355.492 172.259 355.554 172.197C355.616 172.135 355.699 172.1 355.786 172.1H359.145C359.232 172.1 359.316 172.135 359.378 172.197C359.439 172.259 359.474 172.343 359.474 172.43Z" fill="white"/>
<path d="M374.251 172.43V181.543C374.254 181.612 374.278 181.679 374.319 181.734C374.361 181.789 374.417 181.83 374.482 181.852C374.547 181.874 374.618 181.876 374.684 181.858C374.75 181.84 374.809 181.802 374.854 181.75L382.407 172.224C382.44 172.184 382.482 172.152 382.53 172.13C382.577 172.109 382.629 172.098 382.681 172.1H386.793C386.858 172.097 386.922 172.113 386.978 172.147C387.034 172.18 387.078 172.229 387.106 172.288C387.134 172.347 387.144 172.412 387.135 172.477C387.125 172.541 387.097 172.601 387.054 172.65L380.049 181.502C379.996 181.561 379.967 181.636 379.967 181.715C379.967 181.794 379.996 181.87 380.049 181.928L387.054 190.74C387.091 190.79 387.115 190.849 387.121 190.912C387.127 190.974 387.116 191.037 387.089 191.093C387.063 191.15 387.021 191.198 386.969 191.233C386.916 191.267 386.856 191.287 386.793 191.289H382.681C382.629 191.291 382.577 191.281 382.53 191.259C382.482 191.238 382.44 191.206 382.407 191.166L377.664 185.172C377.635 185.13 377.596 185.095 377.551 185.071C377.505 185.047 377.455 185.034 377.404 185.034C377.352 185.034 377.302 185.047 377.256 185.071C377.211 185.095 377.172 185.13 377.143 185.172L374.402 188.678C374.349 188.739 374.32 188.817 374.319 188.898V190.96C374.319 191.047 374.285 191.131 374.223 191.193C374.161 191.255 374.078 191.289 373.99 191.289H370.783C370.694 191.289 370.609 191.255 370.545 191.194C370.481 191.132 370.443 191.048 370.44 190.96V172.43C370.443 172.341 370.481 172.257 370.545 172.196C370.609 172.134 370.694 172.1 370.783 172.1H373.881C373.927 172.094 373.974 172.098 374.019 172.112C374.064 172.126 374.105 172.15 374.14 172.181C374.175 172.212 374.203 172.25 374.222 172.293C374.241 172.336 374.251 172.383 374.251 172.43Z" fill="white"/>
<path d="M400.364 173.722L398.555 176.334C398.503 176.401 398.429 176.448 398.346 176.466C398.263 176.483 398.177 176.471 398.103 176.43C397.197 175.861 396.155 175.548 395.087 175.523C394.018 175.523 392.811 176.142 392.811 177.296C392.811 178.451 394.854 179.069 395.882 179.399C399.076 180.265 401.721 182.231 401.721 185.489C401.697 186.347 401.502 187.192 401.147 187.973C400.792 188.754 400.284 189.456 399.654 190.038C399.025 190.619 398.285 191.069 397.48 191.359C396.674 191.65 395.818 191.776 394.963 191.729C392.592 191.717 390.292 190.914 388.425 189.448C388.357 189.396 388.312 189.321 388.297 189.237C388.281 189.153 388.298 189.066 388.343 188.994L389.987 186.245C390.04 186.167 390.122 186.113 390.214 186.095C390.307 186.077 390.403 186.096 390.481 186.149C391.746 187.153 393.296 187.73 394.909 187.798C396.279 187.798 397.732 187.152 397.732 185.558C397.732 183.963 395.621 183.482 394.305 183.083C391.564 182.341 388.822 180.691 388.822 177.351C388.911 175.768 389.618 174.285 390.791 173.222C391.964 172.159 393.508 171.603 395.087 171.674C396.937 171.668 398.745 172.229 400.268 173.282C400.337 173.33 400.385 173.402 400.403 173.483C400.421 173.565 400.407 173.65 400.364 173.722Z" fill="white"/>
<path d="M46.3462 172.43V175.688C46.3426 175.777 46.305 175.86 46.2411 175.922C46.1772 175.983 46.092 176.018 46.0035 176.018H37.9296C37.8423 176.018 37.7586 176.052 37.6969 176.114C37.6352 176.176 37.6006 176.26 37.6006 176.348V179.564C37.6006 179.652 37.6352 179.736 37.6969 179.797C37.7586 179.859 37.8423 179.894 37.9296 179.894H45.6882C45.7314 179.894 45.7742 179.903 45.8141 179.919C45.854 179.936 45.8903 179.96 45.9208 179.991C45.9514 180.021 45.9756 180.058 45.9921 180.098C46.0087 180.138 46.0172 180.181 46.0172 180.224V183.207C46.0172 183.294 45.9825 183.378 45.9208 183.44C45.8591 183.502 45.7754 183.537 45.6882 183.537H37.9296C37.8423 183.537 37.7586 183.572 37.6969 183.633C37.6352 183.695 37.6006 183.779 37.6006 183.867V187.083C37.6006 187.127 37.6091 187.169 37.6256 187.209C37.6421 187.25 37.6664 187.286 37.6969 187.317C37.7275 187.347 37.7637 187.371 37.8037 187.388C37.8436 187.405 37.8864 187.413 37.9296 187.413H46.0035C46.092 187.413 46.1772 187.447 46.2411 187.509C46.305 187.57 46.3426 187.654 46.3462 187.743V191.001C46.3426 191.09 46.305 191.174 46.2411 191.235C46.1772 191.297 46.092 191.331 46.0035 191.331H34.0228C33.9356 191.331 33.8519 191.296 33.7902 191.234C33.7285 191.172 33.6938 191.088 33.6938 191.001V172.43C33.6938 172.343 33.7285 172.259 33.7902 172.197C33.8519 172.135 33.9356 172.1 34.0228 172.1H46.0035C46.092 172.1 46.1772 172.134 46.2411 172.196C46.305 172.257 46.3426 172.341 46.3462 172.43Z" fill="white"/>
<path d="M52.131 172.21L60.2597 182.932C60.3019 182.987 60.3602 183.027 60.4264 183.047C60.4926 183.066 60.5634 183.065 60.6286 183.042C60.6938 183.019 60.7502 182.976 60.7898 182.92C60.8294 182.863 60.8501 182.795 60.8492 182.726V172.416C60.8492 172.329 60.8838 172.245 60.9455 172.183C61.0072 172.121 61.0909 172.086 61.1782 172.086H64.4269C64.5142 172.086 64.5978 172.121 64.6595 172.183C64.7212 172.245 64.7559 172.329 64.7559 172.416V190.946C64.7559 191.033 64.7212 191.117 64.6595 191.179C64.5978 191.241 64.5142 191.276 64.4269 191.276H61.4249C61.3748 191.277 61.325 191.267 61.2798 191.246C61.2345 191.224 61.1949 191.192 61.1645 191.152L53.118 180.458C53.0734 180.405 53.0142 180.368 52.948 180.349C52.8817 180.331 52.8115 180.333 52.7465 180.355C52.6815 180.378 52.6247 180.419 52.5833 180.474C52.542 180.529 52.5182 180.595 52.5148 180.664V190.973C52.5148 191.061 52.4802 191.145 52.4185 191.207C52.3568 191.269 52.2731 191.303 52.1858 191.303H48.8822C48.7937 191.303 48.7085 191.269 48.6446 191.208C48.5808 191.146 48.5431 191.062 48.5396 190.973V172.43C48.5431 172.341 48.5808 172.257 48.6446 172.196C48.7085 172.134 48.7937 172.1 48.8822 172.1H51.8706C51.9196 172.096 51.969 172.104 52.0144 172.123C52.0598 172.142 52.0998 172.172 52.131 172.21Z" fill="white"/>
<path d="M84.1522 174.341L82.6307 176.609C82.4113 176.939 82.2194 176.952 82.0687 176.87C80.5964 175.877 78.8527 175.368 77.079 175.413C75.4176 175.413 73.8242 176.075 72.6494 177.253C71.4745 178.431 70.8145 180.029 70.8145 181.695C70.8145 183.361 71.4745 184.959 72.6494 186.137C73.8242 187.315 75.4176 187.977 77.079 187.977C78.6284 188.016 80.1591 187.631 81.5066 186.863C81.5598 186.832 81.6041 186.788 81.6353 186.735C81.6666 186.682 81.6836 186.622 81.6848 186.561V184.361C81.6867 184.317 81.6795 184.273 81.6638 184.231C81.6481 184.189 81.6242 184.151 81.5935 184.119C81.5627 184.087 81.5258 184.062 81.485 184.044C81.4442 184.027 81.4002 184.018 81.3558 184.018H79.4916C79.4479 184.02 79.4042 184.012 79.3634 183.997C79.3226 183.981 79.2856 183.956 79.2546 183.925C79.2237 183.894 79.1995 183.857 79.1837 183.816C79.1678 183.775 79.1607 183.732 79.1626 183.688V180.567C79.1607 180.524 79.1678 180.48 79.1837 180.439C79.1995 180.398 79.2237 180.361 79.2546 180.33C79.2856 180.299 79.3226 180.275 79.3634 180.259C79.4042 180.243 79.4479 180.236 79.4916 180.238H84.9747C85.062 180.238 85.1456 180.272 85.2073 180.334C85.269 180.396 85.3037 180.48 85.3037 180.567V188.471C85.3065 188.522 85.2967 188.572 85.2751 188.618C85.2536 188.663 85.221 188.703 85.1803 188.733C82.9837 190.764 80.0796 191.85 77.0927 191.757C74.4315 191.757 71.8793 190.697 69.9975 188.81C68.1158 186.923 67.0586 184.363 67.0586 181.695C67.0586 179.026 68.1158 176.467 69.9975 174.58C71.8793 172.693 74.4315 171.633 77.0927 171.633C79.5886 171.669 82.0173 172.449 84.07 173.873C84.141 173.926 84.1892 174.003 84.2045 174.09C84.2198 174.177 84.2011 174.267 84.1522 174.341Z" fill="white"/>
<path d="M91.3764 172.43V190.96C91.3764 191.047 91.3418 191.131 91.2801 191.193C91.2184 191.255 91.1347 191.29 91.0474 191.29H87.8124C87.7251 191.29 87.6415 191.255 87.5798 191.193C87.5181 191.131 87.4834 191.047 87.4834 190.96V172.43C87.4834 172.343 87.5181 172.259 87.5798 172.197C87.6415 172.135 87.7251 172.1 87.8124 172.1H91.0474C91.1347 172.1 91.2184 172.135 91.2801 172.197C91.3418 172.259 91.3764 172.343 91.3764 172.43Z" fill="white"/>
<path d="M97.1613 172.21L105.276 182.932C105.321 182.984 105.38 183.022 105.446 183.04C105.513 183.059 105.583 183.057 105.648 183.034C105.713 183.012 105.77 182.971 105.811 182.916C105.852 182.861 105.876 182.795 105.879 182.726V172.416C105.879 172.329 105.914 172.245 105.976 172.183C106.037 172.121 106.121 172.086 106.208 172.086H109.457C109.544 172.086 109.628 172.121 109.69 172.183C109.752 172.245 109.786 172.329 109.786 172.416V190.946C109.786 191.033 109.752 191.117 109.69 191.179C109.628 191.241 109.544 191.276 109.457 191.276H106.455C106.405 191.277 106.355 191.267 106.31 191.246C106.265 191.224 106.225 191.192 106.195 191.152L98.0797 180.458C98.0351 180.405 97.9759 180.368 97.9097 180.349C97.8434 180.331 97.7733 180.333 97.7083 180.355C97.6432 180.378 97.5864 180.419 97.5451 180.474C97.5038 180.529 97.4799 180.595 97.4765 180.664V190.973C97.4765 191.061 97.4419 191.145 97.3802 191.207C97.3185 191.269 97.2348 191.303 97.1476 191.303H93.8988C93.8116 191.303 93.7279 191.269 93.6662 191.207C93.6045 191.145 93.5698 191.061 93.5698 190.973V172.43C93.5698 172.343 93.6045 172.259 93.6662 172.197C93.7279 172.135 93.8116 172.1 93.8988 172.1H96.9008C96.9498 172.097 96.9988 172.105 97.044 172.124C97.0892 172.143 97.1294 172.173 97.1613 172.21Z" fill="white"/>
<path d="M124.618 172.43V175.687C124.618 175.775 124.583 175.859 124.521 175.921C124.46 175.983 124.376 176.017 124.289 176.017H116.174C116.086 176.017 116.003 176.052 115.941 176.114C115.879 176.176 115.845 176.26 115.845 176.347V179.564C115.845 179.651 115.879 179.735 115.941 179.797C116.003 179.859 116.086 179.894 116.174 179.894H123.932C123.976 179.894 124.018 179.902 124.058 179.919C124.098 179.935 124.134 179.96 124.165 179.99C124.195 180.021 124.22 180.057 124.236 180.097C124.253 180.137 124.261 180.18 124.261 180.224V183.207C124.261 183.294 124.227 183.378 124.165 183.44C124.103 183.502 124.02 183.536 123.932 183.536H116.174C116.086 183.536 116.003 183.571 115.941 183.633C115.879 183.695 115.845 183.779 115.845 183.866V187.083C115.845 187.126 115.853 187.169 115.87 187.209C115.886 187.249 115.911 187.286 115.941 187.316C115.972 187.347 116.008 187.371 116.048 187.388C116.088 187.404 116.13 187.413 116.174 187.413H124.261C124.349 187.413 124.432 187.448 124.494 187.509C124.556 187.571 124.59 187.655 124.59 187.743V191.001C124.59 191.088 124.556 191.172 124.494 191.234C124.432 191.296 124.349 191.33 124.261 191.33H112.267C112.18 191.33 112.096 191.296 112.034 191.234C111.973 191.172 111.938 191.088 111.938 191.001V172.43C111.938 172.342 111.973 172.258 112.034 172.196C112.096 172.135 112.18 172.1 112.267 172.1H124.261C124.307 172.096 124.352 172.102 124.396 172.117C124.439 172.131 124.478 172.155 124.512 172.186C124.545 172.217 124.572 172.255 124.59 172.297C124.609 172.339 124.618 172.384 124.618 172.43Z" fill="white"/>
<path d="M139.477 172.43V175.687C139.477 175.775 139.442 175.859 139.381 175.921C139.319 175.983 139.235 176.017 139.148 176.017H131.06C130.973 176.017 130.89 176.052 130.828 176.114C130.766 176.176 130.731 176.26 130.731 176.347V179.564C130.731 179.651 130.766 179.735 130.828 179.797C130.89 179.859 130.973 179.894 131.06 179.894H138.819C138.862 179.894 138.905 179.902 138.945 179.919C138.985 179.935 139.021 179.96 139.052 179.99C139.082 180.021 139.106 180.057 139.123 180.097C139.14 180.137 139.148 180.18 139.148 180.224V183.207C139.148 183.294 139.113 183.378 139.052 183.44C138.99 183.502 138.906 183.536 138.819 183.536H131.06C130.973 183.536 130.89 183.571 130.828 183.633C130.766 183.695 130.731 183.779 130.731 183.866V187.083C130.731 187.126 130.74 187.169 130.757 187.209C130.773 187.249 130.797 187.286 130.828 187.316C130.858 187.347 130.895 187.371 130.935 187.388C130.974 187.404 131.017 187.413 131.06 187.413H139.148C139.235 187.413 139.319 187.448 139.381 187.509C139.442 187.571 139.477 187.655 139.477 187.743V191.001C139.477 191.088 139.442 191.172 139.381 191.234C139.319 191.296 139.235 191.33 139.148 191.33H127.14C127.053 191.33 126.969 191.296 126.907 191.234C126.846 191.172 126.811 191.088 126.811 191.001V172.43C126.811 172.342 126.846 172.258 126.907 172.196C126.969 172.135 127.053 172.1 127.14 172.1H139.121C139.166 172.096 139.212 172.102 139.255 172.117C139.298 172.131 139.338 172.155 139.371 172.186C139.405 172.217 139.431 172.255 139.45 172.297C139.468 172.339 139.477 172.384 139.477 172.43Z" fill="white"/>
<path d="M148.675 172.1C150.632 172.136 152.495 172.95 153.855 174.362C155.215 175.774 155.96 177.67 155.927 179.633C155.93 181 155.568 182.343 154.879 183.523C154.189 184.703 153.197 185.676 152.006 186.341C151.96 186.364 151.919 186.397 151.888 186.438C151.857 186.479 151.836 186.527 151.827 186.578C151.817 186.629 151.82 186.681 151.834 186.731C151.849 186.78 151.875 186.826 151.91 186.863L155.831 190.726C155.877 190.772 155.908 190.831 155.921 190.895C155.934 190.959 155.927 191.026 155.902 191.086C155.877 191.146 155.835 191.198 155.781 191.234C155.727 191.27 155.663 191.29 155.598 191.29H151.362C151.318 191.292 151.275 191.285 151.234 191.268C151.194 191.252 151.158 191.226 151.129 191.193L147.016 187.179H145.536V190.96C145.536 191.047 145.501 191.131 145.44 191.193C145.378 191.255 145.294 191.29 145.207 191.29H141.986C141.898 191.29 141.815 191.255 141.753 191.193C141.691 191.131 141.657 191.047 141.657 190.96V172.43C141.657 172.343 141.691 172.259 141.753 172.197C141.815 172.135 141.898 172.1 141.986 172.1H148.675ZM145.55 182.946C145.55 183.033 145.584 183.117 145.646 183.179C145.708 183.241 145.791 183.276 145.879 183.276H148.62C149.529 183.196 150.376 182.778 150.992 182.104C151.609 181.429 151.951 180.548 151.951 179.633C151.951 178.718 151.609 177.836 150.992 177.162C150.376 176.488 149.529 176.069 148.62 175.99H145.879C145.791 175.99 145.708 176.025 145.646 176.087C145.584 176.149 145.55 176.233 145.55 176.32V182.946Z" fill="white"/>
<path d="M161.931 172.43V190.96C161.931 191.047 161.896 191.131 161.834 191.193C161.773 191.255 161.689 191.29 161.602 191.29H158.367C158.279 191.29 158.196 191.255 158.134 191.193C158.072 191.131 158.038 191.047 158.038 190.96V172.43C158.038 172.343 158.072 172.259 158.134 172.197C158.196 172.135 158.279 172.1 158.367 172.1H161.602C161.689 172.1 161.773 172.135 161.834 172.197C161.896 172.259 161.931 172.343 161.931 172.43Z" fill="white"/>
<path d="M167.715 172.21L175.831 182.932C175.875 182.984 175.934 183.022 176.001 183.04C176.067 183.059 176.137 183.057 176.202 183.034C176.267 183.012 176.324 182.971 176.365 182.916C176.406 182.861 176.43 182.795 176.434 182.726V172.416C176.434 172.329 176.468 172.245 176.53 172.183C176.592 172.121 176.675 172.086 176.763 172.086H179.998C180.086 172.086 180.171 172.121 180.235 172.182C180.299 172.244 180.337 172.328 180.34 172.416V190.946C180.337 191.035 180.299 191.119 180.235 191.18C180.171 191.242 180.086 191.276 179.998 191.276H177.009C176.959 191.279 176.909 191.269 176.863 191.247C176.818 191.226 176.779 191.193 176.749 191.152L168.634 180.43C168.589 180.378 168.53 180.34 168.464 180.322C168.398 180.303 168.327 180.306 168.262 180.328C168.197 180.35 168.141 180.391 168.099 180.446C168.058 180.501 168.034 180.568 168.031 180.636V190.946C168.031 191.033 167.996 191.117 167.934 191.179C167.873 191.241 167.789 191.276 167.702 191.276H164.453C164.366 191.276 164.282 191.241 164.22 191.179C164.159 191.117 164.124 191.033 164.124 190.946V172.43C164.124 172.343 164.159 172.259 164.22 172.197C164.282 172.135 164.366 172.1 164.453 172.1H167.455C167.504 172.097 167.553 172.105 167.598 172.124C167.643 172.143 167.684 172.173 167.715 172.21Z" fill="white"/>
<path d="M199.792 174.341L198.27 176.609C198.051 176.925 197.859 176.952 197.708 176.87C196.236 175.877 194.492 175.368 192.719 175.413C191.057 175.413 189.464 176.075 188.289 177.253C187.114 178.431 186.454 180.029 186.454 181.695C186.454 183.361 187.114 184.959 188.289 186.137C189.464 187.315 191.057 187.977 192.719 187.977C194.268 188.016 195.799 187.631 197.146 186.863C197.199 186.832 197.244 186.788 197.275 186.735C197.306 186.682 197.323 186.622 197.324 186.561V184.361C197.326 184.317 197.319 184.273 197.303 184.231C197.288 184.189 197.264 184.151 197.233 184.119C197.202 184.087 197.165 184.062 197.125 184.044C197.084 184.027 197.04 184.018 196.995 184.018H195.131C195.087 184.02 195.043 184.012 195.001 183.997C194.96 183.981 194.922 183.957 194.89 183.926C194.858 183.895 194.832 183.858 194.815 183.817C194.797 183.776 194.789 183.732 194.789 183.688V180.567C194.789 180.523 194.797 180.479 194.815 180.438C194.832 180.397 194.858 180.36 194.89 180.329C194.922 180.298 194.96 180.274 195.001 180.259C195.043 180.243 195.087 180.236 195.131 180.238H200.614C200.702 180.238 200.785 180.272 200.847 180.334C200.909 180.396 200.943 180.48 200.943 180.567V188.471C200.943 188.521 200.932 188.571 200.91 188.616C200.889 188.661 200.858 188.701 200.82 188.733C198.623 190.764 195.719 191.85 192.732 191.757C190.071 191.757 187.519 190.697 185.637 188.81C183.755 186.923 182.698 184.363 182.698 181.695C182.698 179.026 183.755 176.467 185.637 174.58C187.519 172.693 190.071 171.633 192.732 171.633C195.228 171.669 197.657 172.449 199.71 173.873C199.781 173.926 199.829 174.003 199.844 174.09C199.859 174.177 199.841 174.267 199.792 174.341Z" fill="white"/>
<path d="M237.913 196.101C237.914 196.156 237.901 196.21 237.874 196.258C237.848 196.306 237.809 196.347 237.762 196.376C237.128 196.597 236.447 196.644 235.788 196.513C234.416 196.175 233.137 195.532 232.046 194.63C231.608 194.204 231.155 193.709 230.675 193.159C230.196 192.609 229.73 192.032 229.305 191.413C228.88 190.795 228.482 190.369 228.098 189.846C228.05 189.787 227.981 189.747 227.906 189.734C227.83 189.721 227.752 189.737 227.687 189.777C226.82 190.352 225.853 190.757 224.836 190.973C223.725 191.193 222.596 191.303 221.464 191.303C219.618 191.291 217.827 190.673 216.364 189.544C215.662 188.98 215.087 188.272 214.678 187.468C214.238 186.62 214.017 185.675 214.034 184.719C214.023 183.866 214.167 183.018 214.459 182.217C214.719 181.484 215.078 180.79 215.528 180.155C215.969 179.539 216.48 178.977 217.05 178.478C217.603 177.97 218.2 177.51 218.832 177.104C218.407 176.568 218.037 176.1 217.749 175.729C217.477 175.347 217.229 174.948 217.009 174.533C216.819 174.171 216.672 173.788 216.57 173.392C216.476 172.996 216.43 172.59 216.433 172.183C216.421 171.391 216.599 170.608 216.954 169.901C217.276 169.244 217.745 168.67 218.325 168.224C218.949 167.757 219.649 167.404 220.395 167.179C221.19 166.938 222.017 166.817 222.848 166.822C223.692 166.808 224.532 166.943 225.329 167.22C226.008 167.462 226.632 167.836 227.166 168.32C227.658 168.772 228.046 169.325 228.304 169.942C228.555 170.553 228.685 171.206 228.688 171.866C228.692 172.55 228.561 173.227 228.304 173.86C228.054 174.469 227.717 175.039 227.303 175.55C226.894 176.054 226.435 176.514 225.933 176.925C225.53 177.26 225.109 177.572 224.671 177.86C224.636 177.882 224.605 177.911 224.581 177.946C224.557 177.981 224.541 178.02 224.533 178.061C224.526 178.103 224.526 178.145 224.536 178.186C224.546 178.227 224.564 178.266 224.589 178.3L228.468 183.798C228.499 183.835 228.538 183.866 228.582 183.886C228.626 183.907 228.674 183.918 228.722 183.918C228.771 183.918 228.818 183.907 228.862 183.886C228.906 183.866 228.945 183.835 228.976 183.798C229.493 183.138 229.913 182.406 230.223 181.626C230.528 180.81 230.713 179.953 230.771 179.083C230.775 179.005 230.808 178.932 230.864 178.878C230.921 178.824 230.995 178.794 231.073 178.794H234.472C234.519 178.794 234.565 178.803 234.607 178.823C234.65 178.842 234.687 178.87 234.717 178.906C234.747 178.941 234.769 178.983 234.782 179.028C234.794 179.073 234.796 179.12 234.788 179.166C234.523 180.541 234.133 181.889 233.623 183.193C233.031 184.564 232.179 185.806 231.114 186.85C231.072 186.905 231.049 186.972 231.049 187.042C231.049 187.112 231.072 187.179 231.114 187.234C232.294 189.084 233.57 190.868 234.939 192.582C235.294 192.937 235.726 193.206 236.201 193.368C236.676 193.53 237.182 193.581 237.68 193.516C237.724 193.511 237.769 193.514 237.812 193.526C237.855 193.539 237.895 193.56 237.93 193.588C237.965 193.616 237.993 193.651 238.014 193.691C238.034 193.731 238.047 193.774 238.05 193.819L237.913 196.101ZM220.888 180.142C220.463 180.458 220.093 180.746 219.791 181.021C219.498 181.275 219.243 181.572 219.037 181.901C218.824 182.24 218.667 182.611 218.571 183.001C218.46 183.478 218.409 183.968 218.421 184.458C218.405 184.922 218.497 185.383 218.69 185.805C218.883 186.228 219.171 186.599 219.531 186.891C219.876 187.166 220.259 187.388 220.669 187.551C221.107 187.713 221.572 187.792 222.039 187.784C223.229 187.808 224.405 187.539 225.466 187.001C225.505 186.978 225.539 186.948 225.566 186.912C225.593 186.876 225.612 186.835 225.622 186.791C225.632 186.747 225.633 186.702 225.626 186.657C225.618 186.613 225.601 186.571 225.576 186.533L220.888 180.142ZM224.521 172.045C224.539 171.552 224.389 171.067 224.096 170.671C223.909 170.479 223.681 170.332 223.429 170.242C223.177 170.152 222.908 170.119 222.643 170.148C222.342 170.116 222.037 170.152 221.752 170.254C221.468 170.357 221.209 170.522 220.998 170.739C220.685 171.127 220.519 171.615 220.532 172.114C220.547 172.358 220.612 172.597 220.724 172.815C220.865 173.114 221.025 173.403 221.203 173.681L221.765 174.519C221.912 174.74 222.072 174.952 222.245 175.152C222.841 174.821 223.374 174.388 223.822 173.873C224.271 173.382 224.52 172.739 224.521 172.073V172.045Z" fill="white"/>
<path d="M243.876 200.953C243.381 200.787 242.858 200.721 242.338 200.759C241.817 200.797 241.309 200.937 240.843 201.172C240.377 201.407 239.962 201.732 239.621 202.129C239.281 202.525 239.021 202.985 238.859 203.482C238.838 203.55 238.796 203.609 238.74 203.651C238.683 203.693 238.614 203.716 238.543 203.716H212.636C212.545 203.713 212.458 203.679 212.389 203.619L205.137 196.334C205.107 196.303 205.071 196.278 205.031 196.262C204.991 196.245 204.948 196.237 204.904 196.238H26.7714C26.6805 196.238 26.5934 196.274 26.5291 196.339C26.4648 196.403 26.4287 196.49 26.4287 196.582V197.956C26.4287 198.047 26.4648 198.135 26.5291 198.199C26.5934 198.264 26.6805 198.3 26.7714 198.3H204.041C204.086 198.298 204.132 198.305 204.174 198.322C204.217 198.338 204.255 198.364 204.288 198.396L211.539 205.681C211.608 205.741 211.695 205.775 211.786 205.778H238.543C238.614 205.777 238.683 205.8 238.74 205.842C238.796 205.884 238.838 205.944 238.859 206.011C239.004 206.534 239.254 207.021 239.594 207.444C239.933 207.867 240.355 208.216 240.833 208.47C241.311 208.724 241.836 208.878 242.375 208.922C242.915 208.966 243.457 208.9 243.97 208.727C244.483 208.554 244.956 208.279 245.359 207.917C245.763 207.555 246.088 207.115 246.317 206.623C246.545 206.131 246.671 205.598 246.688 205.056C246.704 204.513 246.61 203.973 246.412 203.468C246.224 202.874 245.895 202.335 245.453 201.897C245.011 201.459 244.47 201.135 243.876 200.953ZM242.628 206.685C242.246 206.685 241.872 206.571 241.555 206.358C241.237 206.145 240.989 205.843 240.843 205.488C240.696 205.134 240.658 204.744 240.733 204.369C240.807 203.993 240.991 203.647 241.262 203.376C241.532 203.105 241.876 202.92 242.251 202.846C242.626 202.771 243.015 202.809 243.368 202.956C243.721 203.103 244.023 203.351 244.235 203.67C244.448 203.989 244.561 204.363 244.561 204.747C244.561 205.001 244.511 205.253 244.414 205.488C244.317 205.723 244.174 205.937 243.995 206.117C243.816 206.297 243.602 206.44 243.368 206.537C243.133 206.635 242.882 206.685 242.628 206.685Z" fill="white"/>
<path d="M242.162 164.444L234.856 157.158C234.827 157.126 234.79 157.101 234.75 157.085C234.71 157.068 234.667 157.06 234.623 157.062H207.907C207.835 157.059 207.766 157.034 207.709 156.989C207.653 156.945 207.611 156.884 207.591 156.815C207.246 155.815 206.519 154.994 205.572 154.53C204.624 154.067 203.531 153.998 202.533 154.34C201.941 154.527 201.402 154.852 200.961 155.29C200.52 155.727 200.189 156.264 199.997 156.856C199.805 157.359 199.717 157.896 199.737 158.434C199.757 158.972 199.886 159.501 200.114 159.988C200.343 160.475 200.668 160.911 201.069 161.269C201.47 161.628 201.939 161.901 202.448 162.074C202.956 162.246 203.495 162.313 204.03 162.272C204.566 162.23 205.087 162.081 205.564 161.833C206.04 161.584 206.462 161.242 206.803 160.826C207.145 160.41 207.399 159.929 207.55 159.413C207.571 159.345 207.613 159.286 207.669 159.243C207.726 159.201 207.795 159.179 207.865 159.179H233.732C233.776 159.177 233.819 159.185 233.859 159.201C233.899 159.218 233.935 159.243 233.965 159.275L241.271 166.56C241.34 166.62 241.427 166.654 241.518 166.657H406.478C406.569 166.657 406.656 166.62 406.72 166.556C406.785 166.492 406.821 166.404 406.821 166.313V164.938C406.821 164.847 406.785 164.76 406.72 164.695C406.656 164.631 406.569 164.595 406.478 164.595H242.409C242.311 164.577 242.223 164.523 242.162 164.444ZM203.781 160.004C203.398 160.006 203.023 159.895 202.703 159.684C202.383 159.472 202.133 159.171 201.985 158.817C201.837 158.463 201.796 158.073 201.869 157.696C201.943 157.319 202.126 156.972 202.395 156.7C202.665 156.427 203.009 156.241 203.385 156.166C203.76 156.09 204.149 156.127 204.503 156.274C204.857 156.42 205.16 156.668 205.373 156.987C205.586 157.306 205.7 157.682 205.7 158.065C205.701 158.557 205.516 159.03 205.183 159.39C204.849 159.749 204.392 159.969 203.904 160.004H203.781Z" fill="white"/>
<path d="M95.0501 0.000125809H61.3426C61.0805 -0.00168735 60.8205 0.0485308 60.5778 0.147885C60.3351 0.247239 60.1143 0.393767 59.9283 0.579031C59.7423 0.764295 59.5947 0.984632 59.4939 1.22735C59.3932 1.47008 59.3413 1.73039 59.3413 1.9933L59.1631 96.607C59.1631 106.023 59.026 118.903 45.0166 118.903C32.0216 118.903 30.034 107.906 29.8147 99.26C29.8039 98.7398 29.5893 98.2448 29.2173 97.8821C28.8453 97.5193 28.3459 97.3181 27.8271 97.3218H2.65952C2.12747 97.329 1.61989 97.547 1.24752 97.9281C0.875143 98.3093 0.668213 98.8226 0.671882 99.3562C0.301771 125.309 10.3633 145.556 44.7562 145.543C47.813 145.543 62.2199 145.543 68.9231 145.474C69.3226 145.465 69.7104 145.336 70.0356 145.103C70.3608 144.87 70.6085 144.544 70.7462 144.168L93.4189 83.4658C93.5451 83.1227 93.5754 82.7515 93.5065 82.3923C93.4376 82.0332 93.2721 81.6998 93.028 81.4281C92.7838 81.1564 92.4703 80.9567 92.1213 80.8507C91.7722 80.7447 91.4009 80.7364 91.0475 80.8266L76.9147 84.5655C76.5748 84.6571 76.2168 84.6565 75.8772 84.5638C75.5376 84.4711 75.2286 84.2897 74.9818 84.0381C74.7351 83.7864 74.5594 83.4736 74.4727 83.1315C74.386 82.7895 74.3914 82.4305 74.4884 82.0912L96.9829 2.54314C97.0684 2.24459 97.0831 1.93014 97.0259 1.62488C96.9687 1.31962 96.8411 1.032 96.6533 0.784966C96.4655 0.53793 96.2228 0.338315 95.9445 0.20205C95.6661 0.0657835 95.3599 -0.00336376 95.0501 0.000125809Z" fill="white"/>
<path d="M192.376 145.474C192.906 145.47 193.413 145.258 193.787 144.882C194.162 144.507 194.374 143.998 194.377 143.467V118.312C194.377 118.049 194.326 117.789 194.225 117.546C194.124 117.303 193.976 117.083 193.79 116.898C193.604 116.712 193.384 116.566 193.141 116.466C192.898 116.367 192.638 116.317 192.376 116.319H131.513C131.251 116.319 130.992 116.267 130.75 116.166C130.507 116.065 130.288 115.917 130.103 115.73C129.918 115.543 129.772 115.322 129.673 115.079C129.574 114.835 129.524 114.575 129.526 114.312V87.1909C129.526 86.6622 129.735 86.1553 130.108 85.7815C130.481 85.4077 130.986 85.1977 131.513 85.1977H189.977C190.24 85.1977 190.5 85.1458 190.743 85.0449C190.986 84.9441 191.206 84.7962 191.392 84.6099C191.578 84.4235 191.726 84.2023 191.826 83.9588C191.927 83.7153 191.979 83.4543 191.979 83.1908V60.4412C191.979 60.1783 191.927 59.9179 191.826 59.6752C191.725 59.4325 191.578 59.2122 191.392 59.0269C191.205 58.8416 190.985 58.6951 190.742 58.5957C190.499 58.4964 190.239 58.4462 189.977 58.448H131.513C131.251 58.448 130.992 58.396 130.75 58.295C130.507 58.1939 130.288 58.0459 130.103 57.8593C129.918 57.6728 129.772 57.4515 129.673 57.208C129.574 56.9646 129.524 56.704 129.526 56.4411V31.6983C129.526 31.1697 129.735 30.6627 130.108 30.2889C130.481 29.9151 130.986 29.7051 131.513 29.7051H192.376C192.907 29.7051 193.416 29.4937 193.791 29.1173C194.167 28.7409 194.377 28.2305 194.377 27.6982V2.0894C194.374 1.55824 194.162 1.04987 193.787 0.674273C193.413 0.298681 192.906 0.0860831 192.376 0.0824819L141.904 4.01117e-06C141.526 -0.000754309 141.155 0.106023 140.835 0.307955C140.514 0.509887 140.258 0.798702 140.094 1.14092L111.747 61.4034C111.594 61.7321 111.533 62.0962 111.57 62.4569C111.608 62.8176 111.742 63.1615 111.958 63.4519C112.175 63.7424 112.466 63.9686 112.8 64.1065C113.135 64.2444 113.5 64.2888 113.858 64.235L129.361 61.8295C129.749 61.7771 130.143 61.8397 130.496 62.0097C130.848 62.1796 131.144 62.4495 131.345 62.7859C131.546 63.1222 131.645 63.5104 131.628 63.9023C131.612 64.2942 131.481 64.6727 131.253 64.9911L75.7637 145.378" fill="#199CFF"/>
<path d="M430.864 19.327L416.69 40.3859C416.538 40.606 416.344 40.7935 416.119 40.9372C415.894 41.081 415.642 41.1781 415.379 41.2229C415.116 41.2678 414.847 41.2594 414.587 41.1982C414.327 41.1371 414.082 41.0245 413.866 40.867C404.583 33.9795 393.364 30.2165 381.817 30.1176C358.994 30.4338 336.91 45.2382 335.882 72.7302V72.9639C336.91 100.456 358.994 115.274 381.817 115.576C393.362 115.492 404.583 111.738 413.866 104.855C414.083 104.7 414.329 104.589 414.589 104.53C414.849 104.471 415.118 104.465 415.381 104.511C415.644 104.557 415.895 104.655 416.119 104.799C416.344 104.942 416.538 105.13 416.69 105.349L430.864 126.408C431.166 126.83 431.292 127.353 431.215 127.867C431.138 128.38 430.865 128.843 430.453 129.158C416.548 140.025 399.391 145.867 381.762 145.735C337.294 145.735 305.876 112.415 305.876 72.8814C305.876 33.3479 337.294 0.0276416 381.762 0.0276416C399.393 -0.0987403 416.549 5.74741 430.453 16.6191C430.853 16.9322 431.119 17.3874 431.196 17.891C431.272 18.3946 431.153 18.9084 430.864 19.327Z" fill="white"/>
<path d="M300.448 27.8771V2.24081C300.445 1.71667 300.238 1.21435 299.873 0.839893C299.507 0.465436 299.01 0.248145 298.488 0.233893L204.384 0.0964355C204.122 0.0964293 203.862 0.148435 203.62 0.249459C203.378 0.350484 203.158 0.498532 202.973 0.685073C202.789 0.871614 202.642 1.09296 202.543 1.33637C202.444 1.57979 202.394 1.84045 202.396 2.10335V143.577C202.394 143.84 202.444 144.101 202.543 144.344C202.642 144.588 202.789 144.809 202.973 144.995C203.158 145.182 203.378 145.33 203.62 145.431C203.862 145.532 204.122 145.584 204.384 145.584H298.474C298.737 145.584 298.997 145.532 299.24 145.431C299.483 145.33 299.703 145.183 299.889 144.996C300.075 144.81 300.223 144.589 300.323 144.345C300.424 144.102 300.475 143.841 300.475 143.577V118.463C300.475 118.2 300.424 117.94 300.323 117.697C300.222 117.455 300.074 117.234 299.888 117.049C299.702 116.864 299.482 116.717 299.239 116.618C298.996 116.518 298.736 116.468 298.474 116.47H237.611C237.349 116.47 237.09 116.418 236.848 116.317C236.606 116.216 236.386 116.068 236.201 115.881C236.016 115.695 235.87 115.474 235.771 115.23C235.672 114.987 235.622 114.726 235.624 114.463V87.3423C235.624 86.8137 235.833 86.3067 236.206 85.9329C236.579 85.5591 237.084 85.3491 237.611 85.3491H296.075C296.606 85.3491 297.115 85.1377 297.49 84.7613C297.866 84.3849 298.077 83.8745 298.077 83.3422V60.5926C298.077 60.3297 298.025 60.0693 297.924 59.8266C297.823 59.5839 297.676 59.3636 297.49 59.1783C297.304 58.993 297.083 58.8465 296.84 58.7472C296.597 58.6478 296.337 58.5976 296.075 58.5994H237.584C237.322 58.5994 237.062 58.5474 236.82 58.4464C236.578 58.3453 236.358 58.1973 236.174 58.0108C235.989 57.8242 235.843 57.6029 235.744 57.3595C235.645 57.116 235.595 56.8554 235.596 56.5925V31.8497C235.596 31.3211 235.806 30.8141 236.179 30.4403C236.551 30.0665 237.057 29.8565 237.584 29.8565H298.488C299.007 29.8459 299.501 29.6335 299.867 29.2642C300.233 28.8949 300.441 28.3975 300.448 27.8771Z" fill="white"/>
</svg>
