<svg id="Layer_1" data-name="Layer 1" xmlns="http://www.w3.org/2000/svg" preserveAspectRatio="none" viewBox="0 0 1443.36 469.75"><defs><style>.cls-1{opacity:0.6;}.cls-2{fill:#199cff;}.cls-3{opacity:0.8;}.cls-4{fill:#62bdf4;}.cls-5{fill:#71c9ff;}</style></defs><g class="cls-1"><path class="cls-2" d="M683,327.5c-309.87,0-579.94-71.92-721.68-178.38V618.88C103.06,512.42,373.13,440.5,683,440.5s579.94,71.92,721.68,178.38V149.12C1262.94,255.58,992.87,327.5,683,327.5Z" transform="translate(38.68 -149.12)"/></g><g class="cls-3"><path class="cls-4" d="M683,363.11c-304.15,0-571-72.06-721.68-180.46v402.7C112,477,378.85,404.89,683,404.89S1254.05,477,1404.68,585.35V182.65C1254.05,291.05,987.15,363.11,683,363.11Z" transform="translate(38.68 -149.12)"/></g><path class="cls-5" d="M882,384c210.84,21.25,394.31,75.57,522.69,150.36V233.64C1276.3,308.43,1092.83,362.75,882,384Z" transform="translate(38.68 -149.12)"/><path class="cls-5" d="M484,384C273.17,362.75,89.7,308.43-38.68,233.64V534.36C89.7,459.57,273.17,405.25,484,384Z" transform="translate(38.68 -149.12)"/></svg>