<svg id="Simple_light" xmlns="http://www.w3.org/2000/svg" viewBox="0 0 358.56 195.37"><defs><style>.cls-1{fill:#1f1f1f;}.cls-2{fill:#199cff;isolation:isolate;}</style></defs><path class="cls-1" d="M212.08,147.2v2.38a.25.25,0,0,1-.25.24H208.2a.25.25,0,0,0-.25.25v10.6a.25.25,0,0,1-.24.25h-2.45a.25.25,0,0,1-.24-.25v-10.6a.25.25,0,0,0-.25-.25h-3.63a.25.25,0,0,1-.25-.24V147.2a.25.25,0,0,1,.25-.25h10.69A.25.25,0,0,1,212.08,147.2Z"/><path class="cls-1" d="M222.92,147.2v2.36a.25.25,0,0,1-.25.25h-5.88a.25.25,0,0,0-.25.24v2.33a.25.25,0,0,0,.25.25h5.64a.25.25,0,0,1,.25.24V155a.25.25,0,0,1-.25.25h-5.64a.25.25,0,0,0-.25.25v2.32a.25.25,0,0,0,.25.25h5.88a.25.25,0,0,1,.25.24v2.36a.25.25,0,0,1-.25.25h-8.73a.25.25,0,0,1-.25-.25V147.2a.25.25,0,0,1,.25-.24h8.73A.25.25,0,0,1,222.92,147.2Z"/><path class="cls-1" d="M237.1,148.6l-1.38,2a.24.24,0,0,1-.34.06,5.55,5.55,0,0,0-3.2-1.06,4.31,4.31,0,1,0,0,8.59,5.54,5.54,0,0,0,3.2-1,.23.23,0,0,1,.34.06l1.38,2a.25.25,0,0,1-.06.34,7.88,7.88,0,0,1-4.87,1.64,7.33,7.33,0,1,1,0-14.64,7.82,7.82,0,0,1,4.87,1.64A.25.25,0,0,1,237.1,148.6Z"/><path class="cls-1" d="M241.28,147.2v5.07a.24.24,0,0,0,.24.24h4.83a.24.24,0,0,0,.24-.24V147.2a.25.25,0,0,1,.25-.25h2.36a.25.25,0,0,1,.24.25v13.47a.25.25,0,0,1-.24.25h-2.36a.25.25,0,0,1-.25-.25v-5.06a.25.25,0,0,0-.24-.25h-4.83a.25.25,0,0,0-.24.25v5.06a.25.25,0,0,1-.25.25h-2.35a.25.25,0,0,1-.25-.25V147.2a.25.25,0,0,1,.25-.25H241A.25.25,0,0,1,241.28,147.2Z"/><path class="cls-1" d="M266.27,147.2v2.38a.25.25,0,0,1-.25.24h-3.63a.25.25,0,0,0-.25.25v10.6a.25.25,0,0,1-.24.25h-2.45a.25.25,0,0,1-.24-.25v-10.6a.25.25,0,0,0-.25-.25h-3.63a.25.25,0,0,1-.25-.24V147.2a.25.25,0,0,1,.25-.25H266A.25.25,0,0,1,266.27,147.2Z"/><path class="cls-1" d="M275,147.12l4.91,13.47a.25.25,0,0,1-.23.33h-2.5a.25.25,0,0,1-.23-.16l-1-2.67a.26.26,0,0,0-.23-.17h-4.63a.25.25,0,0,0-.23.17l-1,2.67a.23.23,0,0,1-.23.16h-2.49a.25.25,0,0,1-.23-.33l4.9-13.47a.26.26,0,0,1,.24-.17h2.67A.25.25,0,0,1,275,147.12Zm-2.66,7.95h2.19a.25.25,0,0,0,.23-.33l-1.1-3a.25.25,0,0,0-.46,0l-1.09,3A.25.25,0,0,0,272.31,155.07Z"/><path class="cls-1" d="M284,147.2v10.62a.25.25,0,0,0,.24.25h5.85a.25.25,0,0,1,.25.24v2.36a.25.25,0,0,1-.25.25h-8.78a.25.25,0,0,1-.25-.25V147.2a.25.25,0,0,1,.25-.25h2.44A.25.25,0,0,1,284,147.2Z"/><path class="cls-1" d="M294.78,147.2v6.62a.24.24,0,0,0,.43.16l5.52-6.93a.23.23,0,0,1,.19-.1h3a.25.25,0,0,1,.2.4L299,153.8a.24.24,0,0,0,0,.3l5.11,6.42a.24.24,0,0,1-.19.4h-3a.23.23,0,0,1-.19-.09l-3.47-4.37a.25.25,0,0,0-.38,0l-2,2.56a.27.27,0,0,0-.05.15v1.5a.25.25,0,0,1-.25.25h-2.34a.25.25,0,0,1-.25-.25V147.2a.25.25,0,0,1,.25-.25h2.34A.25.25,0,0,1,294.78,147.2Z"/><path class="cls-1" d="M313.82,148.13,312.5,150a.24.24,0,0,1-.32.08,4.36,4.36,0,0,0-2.2-.66c-.78,0-1.67.44-1.67,1.29s1.49,1.29,2.25,1.53c2.32.63,4.25,2.05,4.25,4.42h0a4.68,4.68,0,0,1-4.93,4.54,7.76,7.76,0,0,1-4.76-1.67.24.24,0,0,1-.07-.32l1.21-2.05a.24.24,0,0,1,.35-.07,5.68,5.68,0,0,0,3.24,1.2c1,0,2-.48,2-1.63s-1.53-1.51-2.49-1.8c-2-.54-4-1.75-4-4.17a4.39,4.39,0,0,1,4.57-4.13,6.6,6.6,0,0,1,3.78,1.16A.25.25,0,0,1,313.82,148.13Z"/><path class="cls-1" d="M55.56,147.2v2.37a.24.24,0,0,1-.24.24h-5.9a.24.24,0,0,0-.24.24v2.34a.24.24,0,0,0,.24.24h5.66a.24.24,0,0,1,.24.24V155a.24.24,0,0,1-.24.24H49.42a.24.24,0,0,0-.24.24v2.34a.24.24,0,0,0,.24.24h5.9a.24.24,0,0,1,.24.24v2.37a.24.24,0,0,1-.24.24H46.58a.25.25,0,0,1-.25-.24V147.2a.25.25,0,0,1,.25-.24h8.74A.24.24,0,0,1,55.56,147.2Z"/><path class="cls-1" d="M59.79,147.05l5.92,7.8a.24.24,0,0,0,.43-.15v-7.5a.25.25,0,0,1,.24-.25h2.37a.25.25,0,0,1,.24.25v13.48a.24.24,0,0,1-.24.24H66.57a.26.26,0,0,1-.2-.1L60.45,153a.24.24,0,0,0-.43.14v7.51a.25.25,0,0,1-.25.24H57.41a.24.24,0,0,1-.24-.24V147.2a.25.25,0,0,1,.24-.25h2.18A.26.26,0,0,1,59.79,147.05Zm-2.62,13.87"/><path class="cls-1" d="M83.15,148.59,82,150.24c-.15.23-.3.25-.41.18a6.29,6.29,0,0,0-3.64-1,4.57,4.57,0,0,0,0,9.14,6.16,6.16,0,0,0,3.24-.82.25.25,0,0,0,.13-.22v-1.6a.24.24,0,0,0-.24-.24H79.74a.24.24,0,0,1-.24-.24v-2.28a.24.24,0,0,1,.24-.24h4a.24.24,0,0,1,.24.24v5.76a.25.25,0,0,1-.09.19,8.28,8.28,0,0,1-5.9,2.2,7.32,7.32,0,1,1,0-14.64,9.08,9.08,0,0,1,5.09,1.63A.25.25,0,0,1,83.15,148.59Z"/><path class="cls-1" d="M88.42,147.2v13.48a.24.24,0,0,1-.24.24H85.81a.24.24,0,0,1-.24-.24V147.2a.25.25,0,0,1,.24-.25h2.37A.25.25,0,0,1,88.42,147.2Z"/><path class="cls-1" d="M92.64,147.05l5.92,7.8a.24.24,0,0,0,.43-.15v-7.5a.25.25,0,0,1,.24-.25h2.37a.25.25,0,0,1,.24.25v13.48a.24.24,0,0,1-.24.24H99.41a.26.26,0,0,1-.19-.1L93.3,153a.24.24,0,0,0-.44.14v7.51a.24.24,0,0,1-.24.24H90.26a.24.24,0,0,1-.24-.24V147.2a.24.24,0,0,1,.24-.25h2.18A.26.26,0,0,1,92.64,147.05ZM90,160.92"/><path class="cls-1" d="M112.66,147.2v2.37a.24.24,0,0,1-.24.24h-5.89a.25.25,0,0,0-.25.24v2.34a.25.25,0,0,0,.25.24h5.65a.24.24,0,0,1,.24.24V155a.24.24,0,0,1-.24.24h-5.65a.25.25,0,0,0-.25.24v2.34a.25.25,0,0,0,.25.24h5.89a.24.24,0,0,1,.24.24v2.37a.24.24,0,0,1-.24.24h-8.74a.24.24,0,0,1-.24-.24V147.2a.24.24,0,0,1,.24-.24h8.74A.24.24,0,0,1,112.66,147.2Z"/><path class="cls-1" d="M123.49,147.2v2.37a.24.24,0,0,1-.24.24h-5.89a.24.24,0,0,0-.24.24v2.34a.24.24,0,0,0,.24.24H123a.24.24,0,0,1,.24.24V155a.24.24,0,0,1-.24.24h-5.66a.24.24,0,0,0-.24.24v2.34a.24.24,0,0,0,.24.24h5.89a.24.24,0,0,1,.24.24v2.37a.24.24,0,0,1-.24.24h-8.74a.24.24,0,0,1-.24-.24V147.2a.24.24,0,0,1,.24-.24h8.74A.24.24,0,0,1,123.49,147.2Z"/><path class="cls-1" d="M130.21,147a5.4,5.4,0,0,1,5.27,5.49,5.53,5.53,0,0,1-2.86,4.87.25.25,0,0,0-.06.39l2.85,2.81a.24.24,0,0,1-.17.41h-3.09a.28.28,0,0,1-.17-.07l-3-2.93h-1.08v2.76a.24.24,0,0,1-.24.24h-2.35a.24.24,0,0,1-.24-.24V147.2a.25.25,0,0,1,.24-.25Zm-2.28,7.9a.25.25,0,0,0,.25.24h2a2.66,2.66,0,0,0,0-5.3h-2a.25.25,0,0,0-.25.24Z"/><path class="cls-1" d="M139.89,147.2v13.48a.24.24,0,0,1-.24.24h-2.37a.24.24,0,0,1-.24-.24V147.2a.25.25,0,0,1,.24-.25h2.37A.25.25,0,0,1,139.89,147.2Z"/><path class="cls-1" d="M144.11,147.05l5.92,7.8a.24.24,0,0,0,.43-.15v-7.5a.25.25,0,0,1,.24-.25h2.37a.25.25,0,0,1,.24.25v13.48a.24.24,0,0,1-.24.24h-2.19a.26.26,0,0,1-.19-.1L144.77,153a.24.24,0,0,0-.43.14v7.51a.25.25,0,0,1-.25.24h-2.36a.24.24,0,0,1-.24-.24V147.2a.24.24,0,0,1,.24-.25h2.18A.26.26,0,0,1,144.11,147.05Zm-2.62,13.87"/><path class="cls-1" d="M167.46,148.59l-1.11,1.65c-.15.23-.3.25-.41.18a6.29,6.29,0,0,0-3.64-1,4.57,4.57,0,0,0,0,9.14,6.16,6.16,0,0,0,3.24-.82.25.25,0,0,0,.13-.22v-1.6a.24.24,0,0,0-.24-.24h-1.37a.24.24,0,0,1-.24-.24v-2.28a.24.24,0,0,1,.24-.24h4a.24.24,0,0,1,.24.24v5.76a.25.25,0,0,1-.09.19,8.3,8.3,0,0,1-5.9,2.2,7.32,7.32,0,1,1,0-14.64,9.08,9.08,0,0,1,5.09,1.63A.24.24,0,0,1,167.46,148.59Z"/><path class="cls-1" d="M195.31,164.42a.23.23,0,0,1-.11.2,2.72,2.72,0,0,1-1.43.1,6.79,6.79,0,0,1-2.73-1.37,13.16,13.16,0,0,1-1-1.07c-.34-.4-.69-.82-1.05-1.27s-.61-.77-.89-1.14a.2.2,0,0,0-.29-.05,6.1,6.1,0,0,1-2.09.87,11.92,11.92,0,0,1-2.46.23,5.84,5.84,0,0,1-2-.33,6,6,0,0,1-1.73-1,4.49,4.49,0,0,1-1.24-1.5,4.17,4.17,0,0,1-.47-2,5.36,5.36,0,0,1,.31-1.82,6,6,0,0,1,.79-1.5,7.56,7.56,0,0,1,1.1-1.23,9.27,9.27,0,0,1,1.3-1c-.31-.39-.57-.73-.79-1a7.15,7.15,0,0,1-.54-.88,4.6,4.6,0,0,1-.32-.83,3.63,3.63,0,0,1-.1-.87,3.52,3.52,0,0,1,.38-1.66,3.62,3.62,0,0,1,1-1.23,4.85,4.85,0,0,1,1.51-.75,5.71,5.71,0,0,1,1.79-.26,4.82,4.82,0,0,1,1.8.29,3.74,3.74,0,0,1,1.34.8,3.17,3.17,0,0,1,.83,1.18,3.49,3.49,0,0,1,.28,1.39,3.65,3.65,0,0,1-.28,1.46,4.84,4.84,0,0,1-.72,1.22,7,7,0,0,1-1,1,10.16,10.16,0,0,1-.93.69.23.23,0,0,0-.06.32l2.83,4a.24.24,0,0,0,.37,0,6.34,6.34,0,0,0,.92-1.57,6.57,6.57,0,0,0,.39-1.85.24.24,0,0,1,.23-.22h2.47a.23.23,0,0,1,.23.28,15.83,15.83,0,0,1-.85,2.93,8.6,8.6,0,0,1-1.82,2.66.21.21,0,0,0,0,.28,47.1,47.1,0,0,0,2.78,3.88,2.4,2.4,0,0,0,2,.69.23.23,0,0,1,.26.22ZM182.89,152.8l-.8.64a3.05,3.05,0,0,0-.55.64,2.94,2.94,0,0,0-.33.8,3.86,3.86,0,0,0-.12,1.07,2.22,2.22,0,0,0,.22,1,2.16,2.16,0,0,0,.59.75,3,3,0,0,0,.83.48,2.62,2.62,0,0,0,1,.18,5.39,5.39,0,0,0,2.5-.57.24.24,0,0,0,.08-.35Zm2.65-5.88a1.64,1.64,0,0,0-.3-1,1.32,1.32,0,0,0-1.07-.38,1.47,1.47,0,0,0-1.19.42,1.56,1.56,0,0,0-.35,1,1.29,1.29,0,0,0,.14.51c.11.21.22.42.35.62s.27.42.41.61.25.35.35.47a4.16,4.16,0,0,0,1.15-.93,1.94,1.94,0,0,0,.51-1.31Z"/><path class="cls-1" d="M199.67,167.94a2.9,2.9,0,0,0-3.66,1.85.26.26,0,0,1-.23.17H176.87a.26.26,0,0,1-.17-.07l-5.3-5.3a.23.23,0,0,0-.17-.08H41.29a.26.26,0,0,0-.25.26v1a.25.25,0,0,0,.25.25H170.61a.23.23,0,0,1,.17.08l5.3,5.3a.26.26,0,0,0,.17.07h19.53a.23.23,0,0,1,.22.17,2.91,2.91,0,1,0,5.51-1.85A2.84,2.84,0,0,0,199.67,167.94Zm-.92,4.18a1.41,1.41,0,1,1,1.41-1.41A1.41,1.41,0,0,1,198.75,172.12Z"/><path class="cls-1" d="M198.42,141.38l-5.33-5.29a.25.25,0,0,0-.18-.08H173.43a.26.26,0,0,1-.24-.17,2.89,2.89,0,0,0-3.66-1.84,2.8,2.8,0,0,0-1.84,1.83,2.9,2.9,0,1,0,5.5,1.85.26.26,0,0,1,.23-.17h18.87a.25.25,0,0,1,.18.08l5.33,5.29a.23.23,0,0,0,.17.08H318.29a.25.25,0,0,0,.24-.25v-1a.24.24,0,0,0-.24-.24H198.59A.23.23,0,0,1,198.42,141.38Zm-28-3.22a1.41,1.41,0,1,1,1.41-1.41A1.41,1.41,0,0,1,170.45,138.16Z"/><path class="cls-1" d="M91.1,21.75H66.53a1.45,1.45,0,0,0-1.45,1.45L64.91,92c0,6.85-.1,16.22-10.32,16.22-9.48,0-10.93-8-11.08-14.29a1.46,1.46,0,0,0-1.45-1.41H23.7A1.47,1.47,0,0,0,22.24,94C22,112.87,29.31,127.6,54.4,127.58c2.24,0,12.74,0,17.64,0a1.45,1.45,0,0,0,1.33-.94L89.9,82.48a1.45,1.45,0,0,0-1.73-1.92L77.86,83.27a1.45,1.45,0,0,1-1.77-1.8L92.5,23.6A1.46,1.46,0,0,0,91.1,21.75Z"/><path class="cls-2" d="M162.09,127.58a1.45,1.45,0,0,0,1.46-1.45v-18.3a1.45,1.45,0,0,0-1.45-1.46H117.69a1.45,1.45,0,0,1-1.45-1.45V85.19a1.45,1.45,0,0,1,1.45-1.46h42.66a1.45,1.45,0,0,0,1.45-1.45V65.73a1.45,1.45,0,0,0-1.45-1.46H117.69a1.45,1.45,0,0,1-1.45-1.45v-18a1.45,1.45,0,0,1,1.45-1.46H162.1a1.45,1.45,0,0,0,1.45-1.45V23.27a1.45,1.45,0,0,0-1.45-1.45l-36.83-.06a1.43,1.43,0,0,0-1.31.83L103.28,66.43a1.45,1.45,0,0,0,1.53,2.06l11.32-1.75A1.45,1.45,0,0,1,117.54,69L77,127.51"/><path class="cls-1" d="M336.08,35.81,325.74,51.14a1.46,1.46,0,0,1-2.06.35,39.84,39.84,0,0,0-23.39-7.82c-16.64.23-32.76,11-33.5,31v.16c.74,20.06,16.86,30.79,33.5,31A39.84,39.84,0,0,0,323.68,98a1.44,1.44,0,0,1,2.05.36l10.35,15.32a1.45,1.45,0,0,1-.3,2,57.09,57.09,0,0,1-35.53,12.07c-32.44,0-55.35-24.25-55.35-53s22.91-53,55.35-53a57.15,57.15,0,0,1,35.53,12.07A1.45,1.45,0,0,1,336.08,35.81Z"/><path class="cls-1" d="M240.93,42V23.39a1.45,1.45,0,0,0-1.45-1.46l-68.64-.1a1.45,1.45,0,0,0-1.46,1.45V126.21a1.45,1.45,0,0,0,1.45,1.45l68.65,0a1.45,1.45,0,0,0,1.45-1.45v-18.3a1.45,1.45,0,0,0-1.45-1.46H195.07a1.45,1.45,0,0,1-1.45-1.45V85.3a1.45,1.45,0,0,1,1.45-1.46h42.66a1.45,1.45,0,0,0,1.45-1.45V65.84a1.45,1.45,0,0,0-1.45-1.46H195.07a1.45,1.45,0,0,1-1.45-1.45v-18a1.45,1.45,0,0,1,1.45-1.46h44.41A1.45,1.45,0,0,0,240.93,42Z"/></svg>