<svg width="85" height="29" viewBox="0 0 85 29" fill="none" xmlns="http://www.w3.org/2000/svg">
<path d="M18.9626 0.210962H12.3414C12.2899 0.210607 12.2388 0.220454 12.1912 0.239937C12.1435 0.25942 12.1001 0.288153 12.0636 0.324482C12.027 0.360811 11.998 0.404018 11.9782 0.451614C11.9585 0.499211 11.9483 0.550256 11.9483 0.601811L11.9133 19.155C11.9133 21.0014 11.8863 23.5271 9.13447 23.5271C6.58185 23.5271 6.19142 21.3707 6.14834 19.6752C6.14622 19.5732 6.10406 19.4761 6.03099 19.405C5.95793 19.3339 5.85982 19.2944 5.75791 19.2951H0.814227C0.709718 19.2966 0.610012 19.3393 0.536867 19.414C0.463721 19.4888 0.423074 19.5894 0.423795 19.6941C0.351093 24.7832 2.32749 28.7537 9.08331 28.751C9.68377 28.751 12.5137 28.751 13.8304 28.7375C13.9089 28.7358 13.9851 28.7105 14.049 28.6648C14.1128 28.6191 14.1615 28.5552 14.1885 28.4814L18.6422 16.5781C18.667 16.5108 18.6729 16.438 18.6594 16.3676C18.6458 16.2971 18.6133 16.2318 18.5654 16.1785C18.5174 16.1252 18.4558 16.086 18.3873 16.0653C18.3187 16.0445 18.2458 16.0428 18.1763 16.0605L15.4002 16.7937C15.3335 16.8117 15.2631 16.8115 15.1964 16.7934C15.1297 16.7752 15.069 16.7396 15.0206 16.6903C14.9721 16.6409 14.9376 16.5796 14.9205 16.5125C14.9035 16.4454 14.9046 16.375 14.9236 16.3085L19.3423 0.709631C19.359 0.651087 19.3619 0.589426 19.3507 0.529566C19.3394 0.469707 19.3144 0.413307 19.2775 0.364864C19.2406 0.316422 19.1929 0.277279 19.1383 0.250558C19.0836 0.223837 19.0234 0.210278 18.9626 0.210962Z" fill="#EFEEEE"/>
<path d="M38.0803 28.7375C38.1844 28.7368 38.284 28.6951 38.3575 28.6214C38.4311 28.5478 38.4727 28.4481 38.4735 28.3439V23.4111C38.4735 23.3596 38.4633 23.3085 38.4435 23.261C38.4237 23.2134 38.3947 23.1701 38.3581 23.1338C38.3216 23.0975 38.2782 23.0688 38.2306 23.0493C38.1829 23.0298 38.1318 23.0199 38.0803 23.0203H26.125C26.0735 23.0203 26.0225 23.0101 25.975 22.9903C25.9274 22.9705 25.8843 22.9415 25.848 22.9049C25.8117 22.8683 25.783 22.8249 25.7635 22.7772C25.7441 22.7294 25.7342 22.6783 25.7346 22.6268V17.3085C25.7346 17.2049 25.7757 17.1055 25.8489 17.0322C25.9222 16.9589 26.0215 16.9177 26.125 16.9177H37.6091C37.6607 16.9177 37.7119 16.9075 37.7596 16.8877C37.8073 16.8679 37.8506 16.839 37.8871 16.8024C37.9236 16.7659 37.9526 16.7225 37.9723 16.6747C37.9921 16.627 38.0022 16.5758 38.0022 16.5241V12.0631C38.0022 12.0115 37.9921 11.9605 37.9723 11.9129C37.9525 11.8653 37.9235 11.8221 37.8869 11.7857C37.8504 11.7494 37.807 11.7207 37.7594 11.7012C37.7117 11.6817 37.6606 11.6719 37.6091 11.6722H26.125C26.0735 11.6722 26.0225 11.662 25.975 11.6422C25.9274 11.6224 25.8843 11.5934 25.848 11.5568C25.8117 11.5202 25.783 11.4768 25.7635 11.4291C25.7441 11.3813 25.7342 11.3302 25.7346 11.2787V6.42677C25.7346 6.32311 25.7757 6.2237 25.8489 6.1504C25.9222 6.0771 26.0215 6.03592 26.125 6.03592H38.0803C38.1846 6.03592 38.2846 5.99446 38.3583 5.92066C38.432 5.84685 38.4735 5.74675 38.4735 5.64238V0.620655C38.4727 0.516499 38.4311 0.41681 38.3575 0.343158C38.284 0.269507 38.1844 0.227818 38.0803 0.227112L28.166 0.210938C28.0917 0.21079 28.0189 0.231728 27.956 0.271326C27.8931 0.310923 27.8427 0.367558 27.8106 0.434665L22.2422 12.2518C22.2123 12.3162 22.2003 12.3876 22.2076 12.4584C22.2149 12.5291 22.2412 12.5965 22.2838 12.6535C22.3263 12.7104 22.3835 12.7548 22.4492 12.7818C22.5149 12.8089 22.5867 12.8176 22.6569 12.807L25.7023 12.3353C25.7784 12.325 25.8559 12.3373 25.9252 12.3706C25.9944 12.404 26.0524 12.4569 26.0919 12.5229C26.1315 12.5888 26.1508 12.6649 26.1476 12.7418C26.1444 12.8186 26.1188 12.8929 26.0739 12.9553L15.1741 28.7186" fill="#199CFF"/>
<path d="M84.9267 4.00095L82.1425 8.13046C82.1127 8.17362 82.0745 8.21038 82.0303 8.23857C81.9861 8.26676 81.9367 8.28581 81.885 8.2946C81.8333 8.30339 81.7804 8.30175 81.7294 8.28976C81.6783 8.27777 81.6302 8.25569 81.5878 8.2248C79.7644 6.87421 77.5606 6.13631 75.2924 6.11692C70.8092 6.17892 66.4714 9.08197 66.2694 14.473V14.5188C66.4714 19.9098 70.8092 22.8156 75.2924 22.8749C77.5602 22.8583 79.7644 22.1222 81.5878 20.7724C81.6305 20.742 81.6788 20.7204 81.7299 20.7088C81.7809 20.6972 81.8338 20.6959 81.8854 20.7049C81.937 20.714 81.9863 20.7331 82.0304 20.7614C82.0746 20.7896 82.1127 20.8263 82.1425 20.8694L84.9267 24.9989C84.986 25.0816 85.0108 25.1842 84.9957 25.2849C84.9806 25.3856 84.9269 25.4764 84.8459 25.538C82.1146 27.6691 78.7445 28.8146 75.2817 28.7888C66.5468 28.7888 60.3752 22.2549 60.3752 14.5026C60.3752 6.75036 66.5468 0.216458 75.2817 0.216458C78.7448 0.191675 82.1148 1.33807 84.8459 3.46993C84.9246 3.53135 84.9768 3.62059 84.9919 3.71935C85.0069 3.8181 84.9836 3.91887 84.9267 4.00095Z" fill="#EFEEEE"/>
<path d="M59.309 5.67735V0.650235C59.3084 0.547454 59.2678 0.448952 59.196 0.375524C59.1241 0.302095 59.0266 0.259486 58.924 0.256691L40.439 0.229736C40.3875 0.229735 40.3365 0.239933 40.289 0.259743C40.2414 0.279554 40.1983 0.308585 40.162 0.345164C40.1257 0.381744 40.097 0.425149 40.0775 0.472881C40.0581 0.520612 40.0482 0.571726 40.0486 0.62328V28.3654C40.0482 28.417 40.0581 28.4681 40.0775 28.5158C40.097 28.5635 40.1257 28.6069 40.162 28.6435C40.1983 28.6801 40.2414 28.7091 40.289 28.7289C40.3365 28.7488 40.3875 28.759 40.439 28.759H58.9213C58.9729 28.759 59.024 28.7488 59.0717 28.729C59.1194 28.7092 59.1628 28.6802 59.1993 28.6437C59.2358 28.6071 59.2647 28.5638 59.2845 28.516C59.3042 28.4683 59.3144 28.4171 59.3144 28.3654V23.4407C59.3144 23.3892 59.3042 23.3381 59.2844 23.2905C59.2646 23.2429 59.2356 23.1997 59.1991 23.1634C59.1626 23.1271 59.1192 23.0983 59.0715 23.0788C59.0238 23.0594 58.9728 23.0495 58.9213 23.0499H46.966C46.9145 23.0499 46.8635 23.0397 46.8159 23.0199C46.7684 23.0001 46.7252 22.971 46.6889 22.9344C46.6527 22.8979 46.624 22.8545 46.6045 22.8067C46.585 22.759 46.5752 22.7079 46.5755 22.6563V17.3381C46.5755 17.2344 46.6167 17.135 46.6899 17.0617C46.7631 16.9884 46.8624 16.9473 46.966 16.9473H58.4501C58.5543 16.9473 58.6543 16.9058 58.728 16.832C58.8018 16.7582 58.8432 16.6581 58.8432 16.5537V12.0927C58.8432 12.0411 58.833 11.9901 58.8132 11.9425C58.7934 11.8949 58.7644 11.8517 58.7279 11.8153C58.6913 11.779 58.648 11.7503 58.6003 11.7308C58.5526 11.7113 58.5016 11.7014 58.4501 11.7018H46.9606C46.9091 11.7018 46.8581 11.6916 46.8106 11.6718C46.763 11.652 46.7198 11.623 46.6836 11.5864C46.6473 11.5498 46.6186 11.5064 46.5991 11.4587C46.5796 11.4109 46.5698 11.3598 46.5702 11.3083V6.45635C46.5702 6.35269 46.6113 6.25328 46.6845 6.17998C46.7577 6.10668 46.857 6.0655 46.9606 6.0655H58.924C59.0259 6.06342 59.123 6.02177 59.1949 5.94935C59.2667 5.87693 59.3076 5.7794 59.309 5.67735Z" fill="#EFEEEE"/>
</svg>
